<svg width="20" height="20" viewBox="0 0 20 20" fill="none" xmlns="http://www.w3.org/2000/svg">
<g id="Frame" clip-path="url(#clip0_26_83875)">
<g id="Group">
<g id="Layer 2">
<g id="48.dribbble">
<path id="Vector" d="M18.1443 0H1.85568C0.830817 0 0 0.830817 0 1.85568V18.1443C0 19.1692 0.830817 20 1.85568 20H18.1443C19.1692 20 20 19.1692 20 18.1443V1.85568C20 0.830817 19.1692 0 18.1443 0Z" fill="#E84B86"/>
<path id="Vector_2" d="M10 16.25C11.2361 16.25 12.4445 15.8834 13.4723 15.1967C14.5001 14.5099 15.3012 13.5338 15.7742 12.3918C16.2473 11.2497 16.3711 9.99307 16.1299 8.78069C15.8888 7.56831 15.2935 6.45466 14.4194 5.58059C13.5453 4.70651 12.4317 4.11125 11.2193 3.87009C10.0069 3.62894 8.75027 3.75271 7.60823 4.22576C6.46619 4.6988 5.49007 5.49988 4.80332 6.52769C4.11656 7.5555 3.75 8.76387 3.75 10C3.7536 11.6565 4.41324 13.2441 5.58456 14.4154C6.75588 15.5868 8.3435 16.2464 10 16.25ZM10 15.1136C8.96414 15.1145 7.95301 14.7972 7.10341 14.2045C8.03144 12.8808 9.34599 11.8762 10.867 11.3284C11.2285 12.4707 11.4573 13.6508 11.5489 14.8455C11.0495 15.0141 10.527 15.1046 10 15.1136ZM12.6364 14.3591C12.5254 13.2268 12.2989 12.1089 11.9602 11.0227C12.9659 10.8222 14.0012 10.8222 15.0068 11.0227C14.8616 11.712 14.5759 12.3639 14.1674 12.9377C13.759 13.5116 13.2366 13.995 12.633 14.358L12.6364 14.3591ZM15.1011 9.88637C13.9351 9.67092 12.7379 9.68791 11.5784 9.93637C11.4341 9.56591 11.2795 9.19887 11.1068 8.83864C12.1177 8.23172 12.9999 7.43257 13.7034 6.48637C14.5747 7.40726 15.0728 8.61896 15.1011 9.88637ZM10 4.88637C11.0068 4.88498 11.9914 5.18195 12.8295 5.73978C12.2249 6.57588 11.462 7.28513 10.5841 7.82728C10.0372 6.8509 9.3926 5.93256 8.66023 5.08637C9.09596 4.9605 9.54651 4.89324 10 4.88637ZM7.55455 5.53637C8.32799 6.39449 9.00373 7.33586 9.56932 8.34318C8.13942 8.95595 6.55968 9.12999 5.03068 8.84318C5.19557 8.14567 5.50553 7.4907 5.94039 6.92095C6.37524 6.35119 6.92524 5.87942 7.55455 5.53637ZM6.47727 10.1352C7.72423 10.1314 8.95663 9.86703 10.0955 9.35909C10.2386 9.65796 10.3659 9.95228 10.4886 10.2682C8.78669 10.8761 7.30888 11.9854 6.25 13.45C5.37627 12.5134 4.88914 11.2809 4.88636 10C5.41297 10.0813 5.94451 10.1264 6.47727 10.1352Z" fill="white"/>
</g>
</g>
</g>
</g>
<defs>
<clipPath id="clip0_26_83875">
<rect width="20" height="20" fill="white"/>
</clipPath>
</defs>
</svg>
