<svg xmlns="http://www.w3.org/2000/svg" width="24" height="25" viewBox="0 0 24 25" fill="none">
  <g clip-path="url(#clip0_8_1179)">
    <path fill-rule="evenodd" clip-rule="evenodd" d="M12 0.222656C18.6276 0.222656 24 5.73057 24 12.5262C24 17.961 20.5656 22.5714 15.8004 24.1998C15.192 24.321 14.976 23.9368 14.976 23.6092C14.976 23.2036 14.9904 21.8788 14.9904 20.2324C14.9904 19.0852 14.6064 18.3365 14.1756 17.9549C16.848 17.6501 19.656 16.6096 19.656 11.884C19.656 10.54 19.1904 9.44325 18.42 8.58165C18.5448 8.27085 18.9564 7.0194 18.3024 5.325C18.3024 5.325 17.2968 4.99533 15.006 6.58653C14.0472 6.31413 13.02 6.17707 12 6.17227C10.98 6.17707 9.954 6.31413 8.9964 6.58653C6.7032 4.99533 5.6952 5.325 5.6952 5.325C5.0436 7.0194 5.4552 8.27085 5.5788 8.58165C4.812 9.44325 4.3428 10.54 4.3428 11.884C4.3428 16.5976 7.1448 17.6541 9.81 17.9649C9.4668 18.2721 9.156 18.814 9.048 19.6096C8.364 19.924 6.6264 20.4681 5.556 18.5877C5.556 18.5877 4.9212 17.4056 3.7164 17.3191C3.7164 17.3191 2.5464 17.3036 3.6348 18.0668C3.6348 18.0668 4.4208 18.4448 4.9668 19.8668C4.9668 19.8668 5.6712 22.0628 9.0096 21.3188C9.0156 22.3472 9.0264 23.3164 9.0264 23.6092C9.0264 23.9344 8.8056 24.315 8.2068 24.201C3.438 22.575 0 17.9622 0 12.5262C0 5.73057 5.3736 0.222656 12 0.222656Z" fill="#454545"/>
  </g>
  <defs>
    <clipPath id="clip0_8_1179">
      <rect width="24" height="24" fill="white" transform="translate(0 0.222656)"/>
    </clipPath>
  </defs>
</svg>