<svg xmlns="http://www.w3.org/2000/svg" width="24" height="25" viewBox="0 0 24 25" fill="none">
  <g clip-path="url(#clip0_8_1166)">
    <path fill-rule="evenodd" clip-rule="evenodd" d="M7.04359 0.369931C5.09013 0.458071 3.39698 0.935667 2.02979 2.29708C0.657834 3.66564 0.18617 5.3655 0.0978101 7.29864C0.0428837 8.50522 -0.278297 17.6206 0.653059 20.0111C1.28113 21.6239 2.51813 22.8639 4.14561 23.4939C4.90503 23.7893 5.77193 23.9893 7.04359 24.0477C17.6766 24.5289 21.6181 24.2669 23.2802 20.0111C23.5751 19.2536 23.7781 18.3875 23.8342 17.1189C24.3202 6.4587 23.7555 4.14803 21.9023 2.29708C20.4324 0.830848 18.7034 -0.167249 7.04359 0.369931ZM7.14147 21.9037C5.97728 21.8513 5.34564 21.6573 4.92414 21.4941C3.86383 21.082 3.0674 20.2889 2.65784 19.2348C1.94858 17.4184 2.18382 8.79128 2.2471 7.39532C2.30919 6.02794 2.58621 4.77826 3.551 3.81349C4.74504 2.62239 6.28773 2.03864 16.7918 2.5127C18.1625 2.57464 19.4151 2.85109 20.3823 3.81349C21.5763 5.00457 22.1686 6.55913 21.6862 17.0229C21.6336 18.1842 21.439 18.8143 21.2754 19.2348C20.1948 22.004 17.7088 22.3885 7.14147 21.9037ZM16.9076 5.8502C16.9076 6.63871 17.5488 7.27989 18.3405 7.27989C19.1321 7.27989 19.7745 6.63871 19.7745 5.8502C19.7745 5.06171 19.1321 4.4211 18.3405 4.4211C17.5488 4.4211 16.9076 5.06171 16.9076 5.8502ZM5.8352 12.2082C5.8352 15.5861 8.58032 18.3248 11.9666 18.3248C15.3529 18.3248 18.0981 15.5861 18.0981 12.2082C18.0981 8.83028 15.3529 6.09337 11.9666 6.09337C8.58032 6.09337 5.8352 8.83028 5.8352 12.2082ZM7.98687 12.2082C7.98687 10.0166 9.7684 8.23848 11.9666 8.23848C14.1649 8.23848 15.9464 10.0166 15.9464 12.2082C15.9464 14.401 14.1649 16.1797 11.9666 16.1797C9.7684 16.1797 7.98687 14.401 7.98687 12.2082Z" fill="#454545"/>
  </g>
  <defs>
    <clipPath id="clip0_8_1166">
      <rect width="24" height="24" fill="white" transform="translate(0 0.222656)"/>
    </clipPath>
  </defs>
</svg>