<svg width="20" height="20" viewBox="0 0 20 20" fill="none" xmlns="http://www.w3.org/2000/svg">
<g id="Frame">
<rect width="20" height="20" rx="3" fill="#888888"/>
<g id="Group 218528">
<path id="Vector" d="M8.79102 10.6061C9.05018 10.9525 9.38084 11.2392 9.76055 11.4467C10.1403 11.6541 10.5601 11.7775 10.9917 11.8084C11.4233 11.8393 11.8565 11.7771 12.2619 11.6258C12.6673 11.4746 13.0354 11.238 13.3413 10.932L15.1518 9.12149C15.7014 8.5524 16.0056 7.79019 15.9987 6.99903C15.9918 6.20787 15.6745 5.45106 15.115 4.8916C14.5556 4.33214 13.7987 4.0148 13.0076 4.00793C12.2164 4.00105 11.4542 4.30519 10.8851 4.85484L9.84712 5.8868" stroke="white" stroke-width="1.3" stroke-linecap="round" stroke-linejoin="round"/>
<path id="Vector_2" d="M11.2078 9.39951C10.9486 9.05303 10.618 8.76634 10.2382 8.55889C9.85854 8.35144 9.43865 8.22807 9.00707 8.19716C8.5755 8.16625 8.14232 8.22852 7.73692 8.37975C7.33152 8.53097 6.96339 8.76762 6.65749 9.07363L4.84703 10.8841C4.29738 11.4532 3.99324 12.2154 4.00011 13.0066C4.00699 13.7977 4.32433 14.5545 4.88379 15.114C5.44324 15.6734 6.20005 15.9908 6.99121 15.9977C7.78238 16.0045 8.54459 15.7004 9.11368 15.1507L10.1456 14.1188" stroke="white" stroke-width="1.3" stroke-linecap="round" stroke-linejoin="round"/>
</g>
</g>
</svg>
