<svg xmlns="http://www.w3.org/2000/svg" width="24" height="25" viewBox="0 0 24 25" fill="none">
  <path fill-rule="evenodd" clip-rule="evenodd" d="M24 24.2227H19.2V15.8238C19.2 13.5198 18.1836 12.2344 16.3608 12.2344C14.3772 12.2344 13.2 13.5738 13.2 15.8238V24.2227H8.4V8.62266H13.2V10.377C13.2 10.377 14.706 7.73438 18.0996 7.73438C21.4944 7.73438 24 9.80598 24 14.0924V24.2227ZM2.9304 6.12773C1.3116 6.12773 0 4.80541 0 3.17461C0 1.54501 1.3116 0.222656 2.9304 0.222656C4.548 0.222656 5.85959 1.54501 5.85959 3.17461C5.8608 4.80541 4.548 6.12773 2.9304 6.12773ZM0 24.2227H6V8.62266H0V24.2227Z" fill="#454545"/>
</svg>