<svg xmlns="http://www.w3.org/2000/svg" width="20" height="20" viewBox="0 0 20 20" fill="none">
  <path d="M9.58333 12.5H5.83333C4.94928 12.5 4.10143 12.8512 3.47631 13.4763C2.85119 14.1014 2.5 14.9493 2.5 15.8333V17.5" stroke="black" stroke-width="1.2" stroke-linecap="round" stroke-linejoin="round"/>
  <path d="M17.8148 13.8558C18.1468 13.5238 18.3333 13.0736 18.3333 12.6041C18.3333 12.1346 18.1468 11.6844 17.8148 11.3524C17.4829 11.0205 17.0326 10.834 16.5632 10.834C16.0937 10.834 15.6434 11.0205 15.3115 11.3524L11.9698 14.6958C11.7717 14.8938 11.6267 15.1386 11.5482 15.4074L10.8507 17.7991C10.8297 17.8708 10.8285 17.9468 10.847 18.0192C10.8656 18.0915 10.9032 18.1576 10.956 18.2104C11.0088 18.2632 11.0749 18.3009 11.1472 18.3194C11.2196 18.3379 11.2956 18.3367 11.3673 18.3158L13.759 17.6183C14.0279 17.5398 14.2726 17.3947 14.4707 17.1966L17.8148 13.8558Z" stroke="black" stroke-width="1.2" stroke-linecap="round" stroke-linejoin="round"/>
  <path d="M8.33333 9.16667C10.1743 9.16667 11.6667 7.67428 11.6667 5.83333C11.6667 3.99238 10.1743 2.5 8.33333 2.5C6.49238 2.5 5 3.99238 5 5.83333C5 7.67428 6.49238 9.16667 8.33333 9.16667Z" stroke="black" stroke-width="1.2" stroke-linecap="round" stroke-linejoin="round"/>
</svg>