<svg xmlns="http://www.w3.org/2000/svg" width="24" height="25" viewBox="0 0 24 25" fill="none">
  <g clip-path="url(#clip0_8_1185)">
    <path fill-rule="evenodd" clip-rule="evenodd" d="M9.58613 15.3295V8.59533C11.9768 9.72024 13.8283 10.8069 16.0181 11.9785C14.212 12.9802 11.9768 14.1041 9.58613 15.3295ZM22.9092 5.24611C22.4968 4.7028 21.794 4.27988 21.0457 4.13986C18.8463 3.7222 5.12518 3.72101 2.92698 4.13986C2.32693 4.25235 1.7926 4.52425 1.3336 4.9467C-0.600435 6.74178 0.00559942 16.3682 0.471777 17.9276C0.667809 18.6025 0.921228 19.0893 1.24038 19.4088C1.65157 19.8312 2.21456 20.1221 2.86123 20.2526C4.67215 20.6271 14.0016 20.8366 21.0074 20.3088C21.6529 20.1963 22.2243 19.8961 22.6749 19.4557C24.4631 17.6678 24.3412 7.50073 22.9092 5.24611Z" fill="#454545"/>
  </g>
  <defs>
    <clipPath id="clip0_8_1185">
      <rect width="24" height="24" fill="white" transform="translate(0 0.222656)"/>
    </clipPath>
  </defs>
</svg>