<svg width="1280" height="580" viewBox="0 0 1280 580" fill="none" xmlns="http://www.w3.org/2000/svg">
<path d="M-17.3086 330.6H1298.34M-17.3086 263.475H1298.34M-17.3086 196.35H1298.34M-17.3086 129.226H1298.34M-17.3086 62.1006H1298.34M-17.3086 -5.02421H1298.34M-17.3086 -72.1491H1298.34M-16.6373 329.929L-16.6373 -72.8203M49.1452 329.929L49.1452 -72.8203M114.927 329.929L114.927 -72.8203M180.71 329.929L180.71 -72.8203M246.492 329.929L246.492 -72.8203M312.274 329.929L312.274 -72.8203M378.057 329.929L378.057 -72.8203M443.839 329.929L443.839 -72.8203M509.622 329.929L509.622 -72.8203M575.404 329.929V-72.8203M641.186 329.929V-72.8203M706.969 329.929V-72.8203M772.751 329.929V-72.8203M838.533 329.929V-72.8203M904.315 329.929V-72.8203M970.098 329.929V-72.8203M1035.88 329.929V-72.8203M1101.66 329.929V-72.8203M1167.44 329.929V-72.8203M1233.23 329.929V-72.8203M1299.01 329.929V-72.8203" stroke="url(#paint0_radial_11263_4481)" stroke-width="1.3425"/>
<g filter="url(#filter0_f_11263_4481)">
<rect x="772.469" y="62.5234" width="66" height="66" fill="#B5E8F4"/>
</g>
<path d="M801.775 116.502H806.978C808.96 116.502 810.24 115.175 809.868 113.555L809.022 110.023H799.731L798.884 113.555C798.513 115.078 799.917 116.502 801.775 116.502Z" stroke="white" stroke-width="2.59235" stroke-linecap="round" stroke-linejoin="round"/>
<path d="M809.02 110.008L812.591 107.003C814.594 105.325 814.677 104.154 813.087 102.261L806.79 94.709C805.468 93.1283 803.3 93.1283 801.979 94.709L795.682 102.261C794.092 104.154 794.092 105.383 796.177 107.003L799.749 110.008" stroke="white" stroke-width="2.59235" stroke-linecap="round" stroke-linejoin="round"/>
<path d="M804.375 94.3125V99.2497" stroke="white" stroke-width="2.59235" stroke-linecap="round" stroke-linejoin="round"/>
<path d="M805.428 82.3544H803.364C802.228 82.3544 801.299 81.4762 801.299 80.4029V78.4515C801.299 77.3782 802.228 76.5 803.364 76.5H805.428C806.564 76.5 807.493 77.3782 807.493 78.4515V80.4029C807.493 81.4762 806.564 82.3544 805.428 82.3544Z" stroke="white" stroke-width="2.59235" stroke-linecap="round" stroke-linejoin="round"/>
<path d="M786.33 100.253H788.395C789.531 100.253 790.46 99.3749 790.46 98.3016V96.3501C790.46 95.2768 789.531 94.3984 788.395 94.3984H786.33C785.195 94.3984 784.266 95.2768 784.266 96.3501V98.3016C784.266 99.3749 785.195 100.253 786.33 100.253Z" stroke="white" stroke-width="2.59235" stroke-linecap="round" stroke-linejoin="round"/>
<path d="M822.379 100.253H820.315C819.179 100.253 818.25 99.3749 818.25 98.3016V96.3501C818.25 95.2768 819.179 94.3984 820.315 94.3984H822.379C823.515 94.3984 824.444 95.2768 824.444 96.3501V98.3016C824.444 99.3749 823.515 100.253 822.379 100.253Z" stroke="white" stroke-width="2.59235" stroke-linecap="round" stroke-linejoin="round"/>
<path d="M801.3 79.5312C793.434 80.4094 787.322 86.7126 787.322 94.3818" stroke="white" stroke-width="2.59235" stroke-linecap="round" stroke-linejoin="round"/>
<path d="M821.389 94.3818C821.389 86.7321 815.319 80.4484 807.494 79.5312" stroke="white" stroke-width="2.59235" stroke-linecap="round" stroke-linejoin="round"/>
<rect width="65" height="67" transform="translate(576 -5)" fill="#F4D0B5"/>
<path d="M621.117 27.7838L625.288 20.6187C625.362 20.496 625.405 20.3469 625.405 20.1877C625.405 19.7121 625.018 19.3275 624.538 19.3275C624.219 19.3275 623.94 19.4983 623.789 19.7535L623.788 19.7568L619.565 27.0115C616.411 25.5745 612.723 24.7358 608.838 24.7358C604.952 24.7358 601.264 25.5745 597.947 27.0778L598.111 27.0115L593.888 19.7552C593.736 19.4966 593.455 19.3242 593.136 19.3242C592.656 19.3242 592.269 19.7087 592.269 20.1844C592.269 20.3435 592.312 20.4911 592.387 20.6187L592.386 20.6154L596.557 27.7805C589.394 31.7037 584.464 38.8804 583.784 47.2456L583.779 47.3318H633.898C633.213 38.8804 628.283 31.7037 621.248 27.8435L621.121 27.7805L621.117 27.7838ZM597.3 40.2528C596.147 40.2528 595.213 39.3263 595.213 38.1827C595.213 37.039 596.147 36.1125 597.3 36.1125C598.453 36.1125 599.388 37.039 599.388 38.1827C599.386 39.3246 598.453 40.2511 597.3 40.2528ZM620.369 40.2528C619.216 40.2528 618.281 39.3263 618.281 38.1827C618.281 37.039 619.216 36.1125 620.369 36.1125C621.522 36.1125 622.456 37.039 622.456 38.1827C622.454 39.3246 621.522 40.2511 620.369 40.2528Z" fill="white"/>
<g filter="url(#filter1_f_11263_4481)">
<rect width="65" height="66" transform="translate(247 63)" fill="#CDB5F4"/>
<path d="M302.051 93.9623L302.022 82.6976L280.238 70.2734V121.184L288.943 116.139V101.815L295.516 105.607L295.477 95.8109L288.943 92.0865V86.3999L302.055 93.9606L302.051 93.9623ZM256.495 82.6959L278.28 70.2734V121.184L269.575 116.139V86.3999L256.463 93.9606L256.495 82.6959Z" fill="white"/>
</g>
<g filter="url(#filter2_f_11263_4481)">
<rect width="66" height="66" transform="translate(969.832 -4.32812)" fill="#CDB5F4"/>
<path fill-rule="evenodd" clip-rule="evenodd" d="M997.64 44.2536C998.056 45.0323 998.472 45.7339 998.869 46.3555C994.645 45.4055 990.979 42.9789 988.442 39.6462C990.116 38.7035 992.261 37.7262 994.838 37.011C995.571 39.8845 996.605 42.3116 997.64 44.2536ZM1000.84 42.5494C999.936 40.8626 999.034 38.7558 998.385 36.2597C999.783 36.0521 1001.28 35.9323 1002.86 35.9323C1004.44 35.9323 1005.94 36.0521 1007.33 36.2595C1006.68 38.7558 1005.78 40.8626 1004.88 42.5494C1004.16 43.9021 1003.44 44.982 1002.86 45.7722C1002.28 44.982 1001.56 43.9021 1000.84 42.5494ZM997.427 28.6895C997.427 30.0997 997.522 31.4382 997.689 32.7018C999.303 32.4543 1001.03 32.3109 1002.86 32.3109C1004.69 32.3109 1006.42 32.4541 1008.03 32.7018C1008.2 31.4379 1008.29 30.0997 1008.29 28.6895C1008.29 27.2793 1008.2 25.9411 1008.03 24.6772C1006.42 24.9247 1004.69 25.0681 1002.86 25.0681C1001.03 25.0681 999.303 24.9247 997.689 24.6772C997.522 25.9408 997.427 27.2793 997.427 28.6895ZM994.136 23.9305C993.926 25.4249 993.806 27.0125 993.806 28.6895C993.806 30.3665 993.926 31.9541 994.136 33.4485C991.062 34.274 988.516 35.4379 986.547 36.5579C985.397 34.1786 984.752 31.5094 984.752 28.6895C984.752 25.8696 985.397 23.2005 986.547 20.8211C988.515 21.9409 991.062 23.1049 994.136 23.9305ZM998.385 21.1194C999.783 21.3269 1001.28 21.4466 1002.86 21.4466C1004.44 21.4466 1005.94 21.327 1007.33 21.1194C1006.68 18.6233 1005.78 16.5165 1004.88 14.8296C1004.16 13.4769 1003.44 12.3968 1002.86 11.6068C1002.28 12.3968 1001.56 13.4769 1000.84 14.8295C999.936 16.5165 999.034 18.6232 998.385 21.1194ZM1011.58 23.9307C1011.79 25.4251 1011.91 27.0128 1011.91 28.6895C1011.91 30.3665 1011.79 31.9538 1011.58 33.4483C1014.66 34.274 1017.2 35.4379 1019.17 36.5579C1020.32 34.1784 1020.97 31.5091 1020.97 28.6895C1020.97 25.8698 1020.32 23.2005 1019.17 20.8212C1017.2 21.941 1014.66 23.105 1011.58 23.9307ZM1017.28 17.7329C1015.6 18.6758 1013.46 19.6529 1010.88 20.3681C1010.15 17.4946 1009.11 15.0674 1008.08 13.1254C1007.66 12.3466 1007.25 11.6453 1006.85 11.0235C1011.07 11.9735 1014.74 14.4002 1017.28 17.7329ZM994.838 20.3681C992.261 19.6529 990.117 18.6757 988.442 17.7328C990.979 14.4002 994.645 11.9735 998.869 11.0235C998.472 11.6453 998.056 12.3466 997.64 13.1253C996.605 15.0673 995.571 17.4945 994.838 20.3681ZM1010.88 37.0108C1010.15 39.8845 1009.11 42.3116 1008.08 44.2536C1007.66 45.0323 1007.25 45.7339 1006.85 46.3555C1011.07 45.4055 1014.74 42.9787 1017.28 39.646C1015.6 38.7032 1013.46 37.7262 1010.88 37.0108ZM1002.86 50.418C1014.86 50.418 1024.59 40.6899 1024.59 28.6895C1024.59 16.6891 1014.86 6.96094 1002.86 6.96094C990.859 6.96094 981.131 16.6891 981.131 28.6895C981.131 40.6899 990.859 50.418 1002.86 50.418Z" fill="white"/>
</g>
<rect x="443.912" y="62.3984" width="65.2941" height="66.4396" fill="url(#paint1_linear_11263_4481)" fill-opacity="0.7"/>
<defs>
<filter id="filter0_f_11263_4481" x="770.741" y="60.7952" width="69.4565" height="69.4565" filterUnits="userSpaceOnUse" color-interpolation-filters="sRGB">
<feFlood flood-opacity="0" result="BackgroundImageFix"/>
<feBlend mode="normal" in="SourceGraphic" in2="BackgroundImageFix" result="shape"/>
<feGaussianBlur stdDeviation="0.864116" result="effect1_foregroundBlur_11263_4481"/>
</filter>
<filter id="filter1_f_11263_4481" x="245.272" y="61.2718" width="68.4565" height="69.4565" filterUnits="userSpaceOnUse" color-interpolation-filters="sRGB">
<feFlood flood-opacity="0" result="BackgroundImageFix"/>
<feBlend mode="normal" in="SourceGraphic" in2="BackgroundImageFix" result="shape"/>
<feGaussianBlur stdDeviation="0.864116" result="effect1_foregroundBlur_11263_4481"/>
</filter>
<filter id="filter2_f_11263_4481" x="968.094" y="-6.06641" width="69.4766" height="69.4766" filterUnits="userSpaceOnUse" color-interpolation-filters="sRGB">
<feFlood flood-opacity="0" result="BackgroundImageFix"/>
<feBlend mode="normal" in="SourceGraphic" in2="BackgroundImageFix" result="shape"/>
<feGaussianBlur stdDeviation="0.869142" result="effect1_foregroundBlur_11263_4481"/>
</filter>
<radialGradient id="paint0_radial_11263_4481" cx="0" cy="0" r="1" gradientUnits="userSpaceOnUse" gradientTransform="translate(640.933 -51.6663) rotate(177.983) scale(658.34 582.446)">
<stop stop-color="#080039" stop-opacity="0.25"/>
<stop offset="0.704" stop-color="#0C0056" stop-opacity="0.2"/>
<stop offset="1" stop-color="#120080" stop-opacity="0"/>
</radialGradient>
<linearGradient id="paint1_linear_11263_4481" x1="476.559" y1="62.3984" x2="476.559" y2="128.838" gradientUnits="userSpaceOnUse">
<stop stop-color="#F7F7FE"/>
<stop offset="1" stop-color="#CBC6E9"/>
</linearGradient>
</defs>
</svg>
