<svg width="40" height="40" viewBox="0 0 40 40" fill="none" xmlns="http://www.w3.org/2000/svg">
<path d="M10.0278 20.2237L16.1387 16.6997C16.8288 16.3014 17.3323 15.6452 17.5385 14.8756C17.7448 14.106 17.6368 13.2859 17.2384 12.5959C16.8401 11.9059 16.1839 11.4024 15.4143 11.1961C14.6447 10.9899 13.8246 11.0978 13.1346 11.4962L2.58594 17.587L10.0278 20.2237Z" fill="#EA4335"/>
<path d="M14.5869 29.3507C15.2471 29.3492 15.8885 29.1305 16.412 28.7281C16.9355 28.3258 17.3119 27.7623 17.4832 27.1247C17.6544 26.4871 17.611 25.8108 17.3596 25.2003C17.1082 24.5899 16.6627 24.0792 16.0921 23.7471L5.54339 17.6564C5.20172 17.4591 4.82455 17.3311 4.4334 17.2796C4.04226 17.2281 3.6448 17.2542 3.26373 17.3563C2.88265 17.4584 2.52541 17.6346 2.21242 17.8748C1.89944 18.1149 1.63682 18.4144 1.43957 18.7561C1.24232 19.0977 1.11429 19.4749 1.0628 19.8661C1.01132 20.2572 1.03737 20.6547 1.13949 21.0357C1.24161 21.4168 1.41778 21.774 1.65795 22.087C1.89813 22.4 2.1976 22.6626 2.53927 22.8599L13.0879 28.9506C13.5439 29.2131 14.0608 29.3511 14.5869 29.3507Z" fill="#4285F4"/>
<path d="M25.1222 29.2844C25.6486 29.2838 26.1656 29.1448 26.6212 28.8812L37.1699 22.7905L29.8168 20.0977L23.617 23.6777C23.0464 24.0098 22.601 24.5205 22.3495 25.1309C22.0981 25.7414 22.0547 26.4177 22.2259 27.0553C22.3972 27.6929 22.7737 28.2564 23.2971 28.6587C23.8206 29.061 24.462 29.2798 25.1222 29.2812V29.2844Z" fill="#FBBC04"/>
<path d="M35.6656 23.1975C36.3263 23.197 36.9685 22.9787 37.4926 22.5764C38.0167 22.174 38.3936 21.6101 38.5648 20.972C38.736 20.3338 38.6921 19.657 38.4398 19.0463C38.1875 18.4357 37.7409 17.9252 37.1692 17.594L26.6206 11.5032C25.9342 11.1412 25.1343 11.0588 24.3885 11.2733C23.6428 11.4878 23.0089 11.9826 22.6198 12.654C22.2307 13.3254 22.1165 14.1213 22.3011 14.8751C22.4857 15.6288 22.9548 16.2818 23.6102 16.6974L34.1604 22.7882C34.6171 23.0554 35.1365 23.1967 35.6656 23.1975Z" fill="#0F9D58"/>
</svg>
