<svg width="24" height="12" viewBox="0 0 24 12" fill="none" xmlns="http://www.w3.org/2000/svg">
<path d="M6.01624 6.13229L9.68283 4.01789C10.0968 3.77886 10.399 3.38516 10.5227 2.9234C10.6464 2.46163 10.5817 1.96961 10.3426 1.5556C10.1036 1.14158 9.70992 0.83947 9.24815 0.71573C8.78638 0.59199 8.29437 0.656754 7.88036 0.895777L1.55115 4.55022L6.01624 6.13229Z" fill="#EA4335"/>
<path d="M8.75194 11.6116C9.14807 11.6107 9.5329 11.4794 9.84699 11.2381C10.1611 10.9967 10.3869 10.6586 10.4897 10.276C10.5925 9.89342 10.5664 9.48766 10.4156 9.12138C10.2647 8.75509 9.99743 8.44867 9.65505 8.24944L3.32584 4.59499C3.12084 4.47664 2.89453 4.39982 2.65985 4.36893C2.42516 4.33804 2.18669 4.35367 1.95804 4.41494C1.7294 4.47621 1.51505 4.58192 1.32726 4.72602C1.13947 4.87013 0.981898 5.04981 0.863546 5.25481C0.745194 5.45981 0.66838 5.68612 0.637487 5.9208C0.606594 6.15549 0.622229 6.39396 0.683499 6.62261C0.744769 6.85125 0.850473 7.06559 0.994577 7.25338C1.13868 7.44118 1.31836 7.59875 1.52336 7.7171L7.85257 11.3716C8.12612 11.529 8.43629 11.6118 8.75194 11.6116Z" fill="#4285F4"/>
<path d="M15.0725 11.5687C15.3883 11.5683 15.6985 11.4849 15.9718 11.3268L22.301 7.67233L17.8892 6.05664L14.1693 8.20467C13.827 8.4039 13.5597 8.71032 13.4088 9.0766C13.258 9.44288 13.2319 9.84865 13.3347 10.2312C13.4375 10.6138 13.6633 10.9519 13.9774 11.1933C14.2915 11.4347 14.6763 11.5659 15.0725 11.5668V11.5687Z" fill="#FBBC04"/>
<path d="M21.3987 7.91813C21.7951 7.91783 22.1804 7.78684 22.4949 7.54544C22.8094 7.30403 23.0355 6.96569 23.1382 6.5828C23.241 6.1999 23.2146 5.79381 23.0632 5.42741C22.9119 5.06101 22.6439 4.75473 22.3009 4.556L15.9717 0.901555C15.5598 0.684327 15.0799 0.63489 14.6325 0.763598C14.185 0.892306 13.8047 1.18917 13.5712 1.59201C13.3378 1.99485 13.2692 2.47241 13.38 2.92465C13.4908 3.37689 13.7722 3.76872 14.1655 4.01806L20.4956 7.67251C20.7696 7.83284 21.0812 7.9176 21.3987 7.91813Z" fill="#0F9D58"/>
</svg>